<svg xmlns="http://www.w3.org/2000/svg" viewBox="0 0 1200 600">
  <defs>
    <linearGradient id="ocean" x1="0" y1="0" x2="1" y2="1">
      <stop offset="0%" stop-color="#06142b" />
      <stop offset="100%" stop-color="#0a223f" />
    </linearGradient>
    <linearGradient id="land" x1="0" y1="0" x2="1" y2="1">
      <stop offset="0%" stop-color="#73ffa2" />
      <stop offset="100%" stop-color="#3cc0ff" />
    </linearGradient>
    <linearGradient id="land-alt" x1="0" y1="0" x2="1" y2="1">
      <stop offset="0%" stop-color="#5df4ff" />
      <stop offset="100%" stop-color="#8cff6b" />
    </linearGradient>
    <filter id="glow" x="-20%" y="-20%" width="140%" height="140%">
      <feGaussianBlur stdDeviation="8" result="blur" />
      <feMerge>
        <feMergeNode in="blur" />
        <feMergeNode in="SourceGraphic" />
      </feMerge>
    </filter>
  </defs>
  <rect width="1200" height="600" fill="url(#ocean)" />
  <g fill="url(#land)" filter="url(#glow)" opacity="0.88">
    <path d="M190 170 L250 150 L340 170 L390 220 L360 250 L360 290 L310 300 L260 280 L210 290 L190 230 Z" />
    <path d="M340 330 L380 320 L430 340 L420 390 L400 420 L360 430 L340 420 L330 380 Z" />
    <path d="M520 200 L600 180 L660 150 L750 170 L820 200 L860 230 L900 240 L880 290 L830 310 L780 280 L730 280 L700 300 L620 310 L590 290 L550 260 Z" />
    <path d="M500 320 L540 310 L600 320 L640 360 L620 410 L580 420 L520 400 L500 360 Z" />
    <path d="M900 260 L930 250 L970 260 L1010 300 L1030 340 L1010 360 L970 360 L930 330 Z" />
    <path d="M880 360 L920 350 L960 370 L980 420 L940 460 L900 450 L880 410 Z" />
  </g>
  <g fill="url(#land-alt)" opacity="0.45">
    <path d="M260 200 L300 190 L360 210 L380 250 L320 260 L280 240 Z" />
    <path d="M760 210 L820 200 L870 220 L870 260 L820 270 L780 250 Z" />
    <path d="M940 320 L980 310 L1020 320 L1020 350 L980 360 L950 340 Z" />
  </g>
</svg>
